<svg xmlns="http://www.w3.org/2000/svg" viewBox="0 0 1100 900" font-family="Segoe UI, Arial, sans-serif">
  <defs>
    <radialGradient id="scalarGrad" cx="50%" cy="50%" r="50%">
      <stop offset="0%" stop-color="#3b82f6" stop-opacity="0.6"/>
      <stop offset="100%" stop-color="#3b82f6" stop-opacity="0.02"/>
    </radialGradient>
    <radialGradient id="scalarGrad2" cx="50%" cy="50%" r="50%">
      <stop offset="0%" stop-color="#3b82f6" stop-opacity="0.45"/>
      <stop offset="100%" stop-color="#3b82f6" stop-opacity="0.01"/>
    </radialGradient>
    <marker id="arrGray" markerWidth="8" markerHeight="6" refX="8" refY="3" orient="auto">
      <polygon points="0 0, 8 3, 0 6" fill="#64748b"/>
    </marker>
    <marker id="arrBlue" markerWidth="8" markerHeight="6" refX="8" refY="3" orient="auto">
      <polygon points="0 0, 8 3, 0 6" fill="#2563eb"/>
    </marker>
    <marker id="arrOrange" markerWidth="8" markerHeight="6" refX="8" refY="3" orient="auto">
      <polygon points="0 0, 8 3, 0 6" fill="#ea580c"/>
    </marker>
    <marker id="arrRed" markerWidth="8" markerHeight="6" refX="8" refY="3" orient="auto">
      <polygon points="0 0, 8 3, 0 6" fill="#dc2626"/>
    </marker>
    <marker id="arrGreen" markerWidth="8" markerHeight="6" refX="8" refY="3" orient="auto">
      <polygon points="0 0, 8 3, 0 6" fill="#16a34a"/>
    </marker>
  </defs>

  <!-- Background -->
  <rect width="1100" height="900" fill="#fafafa" rx="12"/>

  <!-- Main Title -->
  <text x="550" y="38" text-anchor="middle" font-size="24" font-weight="bold" fill="#1e293b">Scalar vs Tensor Gravity — Why It Matters</text>
  <text x="550" y="62" text-anchor="middle" font-size="13" fill="#64748b">PDTP's current scalar field vs Einstein's full metric tensor</text>

  <!-- ==================== TOP ROW ==================== -->

  <!-- === LEFT: SCALAR (PDTP) === -->
  <rect x="30" y="85" width="500" height="340" rx="10" fill="#eff6ff" stroke="#bfdbfe" stroke-width="1.5"/>
  <text x="280" y="115" text-anchor="middle" font-size="18" font-weight="bold" fill="#1e40af">PDTP — Scalar Field φ</text>
  <text x="280" y="137" text-anchor="middle" font-size="12" fill="#64748b">One number at every point in space</text>

  <!-- Grid of points with scalar values (heat map style) -->
  <!-- Row 1 -->
  <circle cx="120" cy="200" r="22" fill="#dbeafe" stroke="#93c5fd" stroke-width="1"/>
  <text x="120" y="205" text-anchor="middle" font-size="11" font-weight="bold" fill="#1e40af">0.2</text>
  <circle cx="190" cy="200" r="22" fill="#bfdbfe" stroke="#60a5fa" stroke-width="1"/>
  <text x="190" y="205" text-anchor="middle" font-size="11" font-weight="bold" fill="#1e40af">0.5</text>
  <circle cx="260" cy="200" r="22" fill="#93c5fd" stroke="#3b82f6" stroke-width="1.5"/>
  <text x="260" y="205" text-anchor="middle" font-size="11" font-weight="bold" fill="#1e3a8a">0.8</text>
  <circle cx="330" cy="200" r="22" fill="#60a5fa" stroke="#2563eb" stroke-width="2"/>
  <text x="330" y="205" text-anchor="middle" font-size="11" font-weight="bold" fill="white">1.5</text>
  <circle cx="400" cy="200" r="22" fill="#3b82f6" stroke="#1d4ed8" stroke-width="2"/>
  <text x="400" y="205" text-anchor="middle" font-size="11" font-weight="bold" fill="white">3.0</text>

  <!-- Row 2 -->
  <circle cx="120" cy="270" r="22" fill="#bfdbfe" stroke="#60a5fa" stroke-width="1"/>
  <text x="120" y="275" text-anchor="middle" font-size="11" font-weight="bold" fill="#1e40af">0.4</text>
  <circle cx="190" cy="270" r="22" fill="#93c5fd" stroke="#3b82f6" stroke-width="1.5"/>
  <text x="190" y="275" text-anchor="middle" font-size="11" font-weight="bold" fill="#1e3a8a">0.9</text>
  <circle cx="260" cy="270" r="22" fill="#60a5fa" stroke="#2563eb" stroke-width="2"/>
  <text x="260" y="275" text-anchor="middle" font-size="11" font-weight="bold" fill="white">2.1</text>
  <circle cx="330" cy="270" r="22" fill="#2563eb" stroke="#1d4ed8" stroke-width="2"/>
  <text x="330" y="275" text-anchor="middle" font-size="11" font-weight="bold" fill="white">5.8</text>
  <circle cx="400" cy="270" r="22" fill="#60a5fa" stroke="#2563eb" stroke-width="2"/>
  <text x="400" y="275" text-anchor="middle" font-size="11" font-weight="bold" fill="white">2.4</text>

  <!-- Row 3 -->
  <circle cx="120" cy="340" r="22" fill="#dbeafe" stroke="#93c5fd" stroke-width="1"/>
  <text x="120" y="345" text-anchor="middle" font-size="11" font-weight="bold" fill="#1e40af">0.3</text>
  <circle cx="190" cy="340" r="22" fill="#bfdbfe" stroke="#60a5fa" stroke-width="1"/>
  <text x="190" y="345" text-anchor="middle" font-size="11" font-weight="bold" fill="#1e40af">0.6</text>
  <circle cx="260" cy="340" r="22" fill="#93c5fd" stroke="#3b82f6" stroke-width="1.5"/>
  <text x="260" y="345" text-anchor="middle" font-size="11" font-weight="bold" fill="#1e3a8a">1.2</text>
  <circle cx="330" cy="340" r="22" fill="#60a5fa" stroke="#2563eb" stroke-width="2"/>
  <text x="330" y="345" text-anchor="middle" font-size="11" font-weight="bold" fill="white">2.0</text>
  <circle cx="400" cy="340" r="22" fill="#3b82f6" stroke="#1d4ed8" stroke-width="2"/>
  <text x="400" y="345" text-anchor="middle" font-size="11" font-weight="bold" fill="white">1.3</text>

  <!-- Mass label -->
  <text x="330" y="310" text-anchor="middle" font-size="9" fill="#dc2626" font-weight="bold">MASS</text>
  <circle cx="330" cy="270" r="24" fill="none" stroke="#dc2626" stroke-width="1.5" stroke-dasharray="4,3"/>

  <!-- Explanation -->
  <text x="280" y="390" text-anchor="middle" font-size="12" fill="#475569">Each point stores ONE number: "how strong is gravity here?"</text>
  <text x="280" y="408" text-anchor="middle" font-size="12" fill="#475569">Darker = stronger field. But NO direction information.</text>

  <!-- === RIGHT: TENSOR (GR) === -->
  <rect x="570" y="85" width="500" height="340" rx="10" fill="#fef3c7" stroke="#fcd34d" stroke-width="1.5"/>
  <text x="820" y="115" text-anchor="middle" font-size="18" font-weight="bold" fill="#92400e">Einstein's GR — Metric Tensor g_μν</text>
  <text x="820" y="137" text-anchor="middle" font-size="12" fill="#64748b">A 4×4 matrix at every point in space</text>

  <!-- Single point with matrix -->
  <circle cx="660" cy="270" r="8" fill="#f59e0b" stroke="#d97706" stroke-width="2"/>
  <text x="660" y="250" text-anchor="middle" font-size="10" fill="#92400e" font-weight="bold">At this point:</text>

  <!-- Matrix bracket left -->
  <line x1="700" y1="200" x2="700" y2="340" stroke="#92400e" stroke-width="2"/>
  <line x1="700" y1="200" x2="712" y2="200" stroke="#92400e" stroke-width="2"/>
  <line x1="700" y1="340" x2="712" y2="340" stroke="#92400e" stroke-width="2"/>

  <!-- Matrix bracket right -->
  <line x1="970" y1="200" x2="970" y2="340" stroke="#92400e" stroke-width="2"/>
  <line x1="958" y1="200" x2="970" y2="200" stroke="#92400e" stroke-width="2"/>
  <line x1="958" y1="340" x2="970" y2="340" stroke="#92400e" stroke-width="2"/>

  <!-- Matrix content - 4x4 -->
  <!-- Headers -->
  <text x="748" y="195" text-anchor="middle" font-size="9" fill="#92400e">t</text>
  <text x="808" y="195" text-anchor="middle" font-size="9" fill="#92400e">x</text>
  <text x="868" y="195" text-anchor="middle" font-size="9" fill="#92400e">y</text>
  <text x="928" y="195" text-anchor="middle" font-size="9" fill="#92400e">z</text>

  <text x="718" y="228" text-anchor="middle" font-size="9" fill="#92400e">t</text>
  <text x="718" y="268" text-anchor="middle" font-size="9" fill="#92400e">x</text>
  <text x="718" y="308" text-anchor="middle" font-size="9" fill="#92400e">y</text>
  <text x="718" y="338" text-anchor="middle" font-size="9" fill="#92400e">z</text>

  <!-- Row 1: g_tt, g_tx, g_ty, g_tz -->
  <text x="748" y="228" text-anchor="middle" font-size="13" font-weight="bold" fill="#b45309">−0.95</text>
  <text x="808" y="228" text-anchor="middle" font-size="13" fill="#78716c">0.01</text>
  <text x="868" y="228" text-anchor="middle" font-size="13" fill="#78716c">0</text>
  <text x="928" y="228" text-anchor="middle" font-size="13" fill="#78716c">0</text>

  <!-- Row 2 -->
  <text x="748" y="268" text-anchor="middle" font-size="13" fill="#78716c">0.01</text>
  <text x="808" y="268" text-anchor="middle" font-size="13" font-weight="bold" fill="#b45309">1.05</text>
  <text x="868" y="268" text-anchor="middle" font-size="13" fill="#78716c">0</text>
  <text x="928" y="268" text-anchor="middle" font-size="13" fill="#78716c">0</text>

  <!-- Row 3 -->
  <text x="748" y="308" text-anchor="middle" font-size="13" fill="#78716c">0</text>
  <text x="808" y="308" text-anchor="middle" font-size="13" fill="#78716c">0</text>
  <text x="868" y="308" text-anchor="middle" font-size="13" font-weight="bold" fill="#b45309">1.05</text>
  <text x="928" y="308" text-anchor="middle" font-size="13" fill="#78716c">0</text>

  <!-- Row 4 -->
  <text x="748" y="338" text-anchor="middle" font-size="13" fill="#78716c">0</text>
  <text x="808" y="338" text-anchor="middle" font-size="13" fill="#78716c">0</text>
  <text x="868" y="338" text-anchor="middle" font-size="13" fill="#78716c">0</text>
  <text x="928" y="338" text-anchor="middle" font-size="13" font-weight="bold" fill="#b45309">1.05</text>

  <!-- Highlight diagonal -->
  <rect x="725" y="212" width="46" height="22" rx="3" fill="#fbbf24" fill-opacity="0.3" stroke="none"/>
  <rect x="785" y="252" width="46" height="22" rx="3" fill="#fbbf24" fill-opacity="0.3" stroke="none"/>
  <rect x="845" y="292" width="46" height="22" rx="3" fill="#fbbf24" fill-opacity="0.3" stroke="none"/>
  <rect x="905" y="322" width="46" height="22" rx="3" fill="#fbbf24" fill-opacity="0.3" stroke="none"/>

  <!-- 10 independent label -->
  <text x="835" y="370" text-anchor="middle" font-size="11" fill="#92400e" font-weight="bold">10 independent numbers (symmetric matrix)</text>
  <text x="835" y="390" text-anchor="middle" font-size="12" fill="#475569">Encodes gravity strength AND direction</text>
  <text x="835" y="408" text-anchor="middle" font-size="12" fill="#475569">in all 4 dimensions (time + 3 space).</text>

  <!-- ==================== BOTTOM ROW: GRAVITATIONAL WAVES ==================== -->

  <text x="550" y="470" text-anchor="middle" font-size="20" font-weight="bold" fill="#1e293b">Gravitational Waves: The Decisive Test</text>
  <text x="550" y="492" text-anchor="middle" font-size="13" fill="#64748b">How a passing gravitational wave deforms a ring of particles</text>

  <!-- === LEFT: SCALAR BREATHING MODE === -->
  <rect x="30" y="510" width="330" height="360" rx="10" fill="#eff6ff" stroke="#bfdbfe" stroke-width="1.5"/>
  <text x="195" y="540" text-anchor="middle" font-size="16" font-weight="bold" fill="#1e40af">Scalar: Breathing Mode</text>
  <text x="195" y="558" text-anchor="middle" font-size="11" fill="#64748b">Expands and contracts uniformly</text>

  <!-- Frame 1: Normal circle -->
  <text x="108" y="590" text-anchor="middle" font-size="10" fill="#64748b">rest</text>
  <circle cx="108" cy="650" r="45" fill="none" stroke="#3b82f6" stroke-width="2.5"/>
  <!-- dots on circle -->
  <circle cx="108" cy="605" r="4" fill="#1d4ed8"/>
  <circle cx="153" cy="650" r="4" fill="#1d4ed8"/>
  <circle cx="108" cy="695" r="4" fill="#1d4ed8"/>
  <circle cx="63" cy="650" r="4" fill="#1d4ed8"/>
  <circle cx="140" cy="618" r="4" fill="#1d4ed8"/>
  <circle cx="140" cy="682" r="4" fill="#1d4ed8"/>
  <circle cx="76" cy="618" r="4" fill="#1d4ed8"/>
  <circle cx="76" cy="682" r="4" fill="#1d4ed8"/>

  <!-- Frame 2: Expanded circle -->
  <text x="280" y="590" text-anchor="middle" font-size="10" fill="#64748b">stretched</text>
  <circle cx="280" cy="650" r="58" fill="#dbeafe" fill-opacity="0.5" stroke="#3b82f6" stroke-width="2.5" stroke-dasharray="6,3"/>
  <circle cx="280" cy="650" r="45" fill="none" stroke="#93c5fd" stroke-width="1" stroke-dasharray="4,4"/>
  <!-- dots on expanded circle -->
  <circle cx="280" cy="592" r="4" fill="#1d4ed8"/>
  <circle cx="338" cy="650" r="4" fill="#1d4ed8"/>
  <circle cx="280" cy="708" r="4" fill="#1d4ed8"/>
  <circle cx="222" cy="650" r="4" fill="#1d4ed8"/>
  <circle cx="321" cy="609" r="4" fill="#1d4ed8"/>
  <circle cx="321" cy="691" r="4" fill="#1d4ed8"/>
  <circle cx="239" cy="609" r="4" fill="#1d4ed8"/>
  <circle cx="239" cy="691" r="4" fill="#1d4ed8"/>
  <!-- Outward arrows -->
  <line x1="280" y1="600" x2="280" y2="586" stroke="#2563eb" stroke-width="1.5" marker-end="url(#arrBlue)"/>
  <line x1="330" y1="650" x2="344" y2="650" stroke="#2563eb" stroke-width="1.5" marker-end="url(#arrBlue)"/>
  <line x1="280" y1="700" x2="280" y2="714" stroke="#2563eb" stroke-width="1.5" marker-end="url(#arrBlue)"/>
  <line x1="230" y1="650" x2="216" y2="650" stroke="#2563eb" stroke-width="1.5" marker-end="url(#arrBlue)"/>

  <!-- Label -->
  <text x="195" y="740" text-anchor="middle" font-size="12" fill="#1e40af" font-weight="bold">All directions expand equally</text>
  <text x="195" y="758" text-anchor="middle" font-size="11" fill="#475569">Circle stays a circle (just bigger/smaller)</text>
  <text x="195" y="778" text-anchor="middle" font-size="11" fill="#475569">Like a balloon inflating and deflating</text>

  <!-- Big arrow between -->
  <text x="193" y="655" text-anchor="middle" font-size="22" fill="#3b82f6">→</text>

  <!-- Prediction box -->
  <rect x="55" y="796" width="280" height="30" rx="6" fill="#dbeafe" stroke="#93c5fd" stroke-width="1"/>
  <text x="195" y="816" text-anchor="middle" font-size="12" font-weight="bold" fill="#1e40af">PDTP scalar sector predicts this</text>
  <rect x="55" y="830" width="280" height="28" rx="6" fill="#fee2e2" stroke="#fca5a5" stroke-width="1"/>
  <text x="195" y="849" text-anchor="middle" font-size="11" font-weight="bold" fill="#dc2626">NOT yet seen by LIGO</text>

  <!-- === MIDDLE: TENSOR + MODE === -->
  <rect x="385" y="510" width="330" height="360" rx="10" fill="#fef3c7" stroke="#fcd34d" stroke-width="1.5"/>
  <text x="550" y="540" text-anchor="middle" font-size="16" font-weight="bold" fill="#92400e">Tensor: Plus (+) Mode</text>
  <text x="550" y="558" text-anchor="middle" font-size="11" fill="#64748b">Squeezes one axis, stretches the other</text>

  <!-- Frame 1: Normal circle -->
  <text x="460" y="590" text-anchor="middle" font-size="10" fill="#64748b">rest</text>
  <circle cx="460" cy="650" r="45" fill="none" stroke="#f59e0b" stroke-width="2.5"/>
  <circle cx="460" cy="605" r="4" fill="#b45309"/>
  <circle cx="505" cy="650" r="4" fill="#b45309"/>
  <circle cx="460" cy="695" r="4" fill="#b45309"/>
  <circle cx="415" cy="650" r="4" fill="#b45309"/>
  <circle cx="492" cy="618" r="4" fill="#b45309"/>
  <circle cx="492" cy="682" r="4" fill="#b45309"/>
  <circle cx="428" cy="618" r="4" fill="#b45309"/>
  <circle cx="428" cy="682" r="4" fill="#b45309"/>

  <!-- Frame 2: Ellipse (stretched horizontal, squeezed vertical) -->
  <text x="638" y="590" text-anchor="middle" font-size="10" fill="#64748b">stretched</text>
  <ellipse cx="638" cy="650" rx="60" ry="35" fill="#fef9c3" fill-opacity="0.5" stroke="#f59e0b" stroke-width="2.5"/>
  <circle cx="638" cy="650" r="45" fill="none" stroke="#fcd34d" stroke-width="1" stroke-dasharray="4,4"/>
  <!-- dots on ellipse -->
  <circle cx="638" cy="615" r="4" fill="#b45309"/>
  <circle cx="698" cy="650" r="4" fill="#b45309"/>
  <circle cx="638" cy="685" r="4" fill="#b45309"/>
  <circle cx="578" cy="650" r="4" fill="#b45309"/>
  <circle cx="680" cy="628" r="4" fill="#b45309"/>
  <circle cx="680" cy="672" r="4" fill="#b45309"/>
  <circle cx="596" cy="628" r="4" fill="#b45309"/>
  <circle cx="596" cy="672" r="4" fill="#b45309"/>
  <!-- Arrows: horizontal out, vertical in -->
  <line x1="690" y1="650" x2="704" y2="650" stroke="#ea580c" stroke-width="1.5" marker-end="url(#arrOrange)"/>
  <line x1="586" y1="650" x2="572" y2="650" stroke="#ea580c" stroke-width="1.5" marker-end="url(#arrOrange)"/>
  <line x1="638" y1="623" x2="638" y2="610" stroke="#dc2626" stroke-width="1.5" marker-end="url(#arrRed)"/>
  <line x1="638" y1="677" x2="638" y2="690" stroke="#dc2626" stroke-width="1.5" marker-end="url(#arrRed)"/>

  <!-- Arrow between -->
  <text x="548" y="655" text-anchor="middle" font-size="22" fill="#f59e0b">→</text>

  <!-- Label -->
  <text x="550" y="740" text-anchor="middle" font-size="12" fill="#92400e" font-weight="bold">Horizontal stretches, vertical squeezes</text>
  <text x="550" y="758" text-anchor="middle" font-size="11" fill="#475569">Circle becomes an ellipse</text>
  <text x="550" y="778" text-anchor="middle" font-size="11" fill="#475569">Like squeezing a rubber ball sideways</text>

  <!-- Prediction box -->
  <rect x="410" y="796" width="280" height="30" rx="6" fill="#fef3c7" stroke="#fcd34d" stroke-width="1"/>
  <text x="550" y="816" text-anchor="middle" font-size="12" font-weight="bold" fill="#92400e">Einstein's GR predicts this</text>
  <rect x="410" y="830" width="280" height="28" rx="6" fill="#dcfce7" stroke="#86efac" stroke-width="1"/>
  <text x="550" y="849" text-anchor="middle" font-size="11" font-weight="bold" fill="#16a34a">CONFIRMED by LIGO (2015+)</text>

  <!-- === RIGHT: TENSOR × MODE === -->
  <rect x="740" y="510" width="330" height="360" rx="10" fill="#fef3c7" stroke="#fcd34d" stroke-width="1.5"/>
  <text x="905" y="540" text-anchor="middle" font-size="16" font-weight="bold" fill="#92400e">Tensor: Cross (×) Mode</text>
  <text x="905" y="558" text-anchor="middle" font-size="11" fill="#64748b">Same but rotated 45°</text>

  <!-- Frame 1: Normal circle -->
  <text x="815" y="590" text-anchor="middle" font-size="10" fill="#64748b">rest</text>
  <circle cx="815" cy="650" r="45" fill="none" stroke="#f59e0b" stroke-width="2.5"/>
  <circle cx="815" cy="605" r="4" fill="#b45309"/>
  <circle cx="860" cy="650" r="4" fill="#b45309"/>
  <circle cx="815" cy="695" r="4" fill="#b45309"/>
  <circle cx="770" cy="650" r="4" fill="#b45309"/>
  <circle cx="847" cy="618" r="4" fill="#b45309"/>
  <circle cx="847" cy="682" r="4" fill="#b45309"/>
  <circle cx="783" cy="618" r="4" fill="#b45309"/>
  <circle cx="783" cy="682" r="4" fill="#b45309"/>

  <!-- Frame 2: Ellipse rotated 45deg -->
  <text x="993" y="590" text-anchor="middle" font-size="10" fill="#64748b">stretched</text>
  <ellipse cx="993" cy="650" rx="60" ry="35" fill="#fef9c3" fill-opacity="0.5" stroke="#f59e0b" stroke-width="2.5" transform="rotate(45, 993, 650)"/>
  <circle cx="993" cy="650" r="45" fill="none" stroke="#fcd34d" stroke-width="1" stroke-dasharray="4,4"/>
  <!-- dots on rotated ellipse (diagonal positions) -->
  <circle cx="993" cy="608" r="4" fill="#b45309"/>
  <circle cx="1035" cy="650" r="4" fill="#b45309"/>
  <circle cx="993" cy="692" r="4" fill="#b45309"/>
  <circle cx="951" cy="650" r="4" fill="#b45309"/>
  <circle cx="1033" cy="610" r="4" fill="#b45309"/>
  <circle cx="1033" cy="690" r="4" fill="#b45309"/>
  <circle cx="953" cy="610" r="4" fill="#b45309"/>
  <circle cx="953" cy="690" r="4" fill="#b45309"/>
  <!-- Diagonal arrows -->
  <line x1="1026" y1="617" x2="1038" y2="605" stroke="#ea580c" stroke-width="1.5" marker-end="url(#arrOrange)"/>
  <line x1="960" y1="683" x2="948" y2="695" stroke="#ea580c" stroke-width="1.5" marker-end="url(#arrOrange)"/>
  <line x1="960" y1="617" x2="948" y2="605" stroke="#dc2626" stroke-width="1.5" marker-end="url(#arrRed)"/>
  <line x1="1026" y1="683" x2="1038" y2="695" stroke="#dc2626" stroke-width="1.5" marker-end="url(#arrRed)"/>

  <!-- Arrow between -->
  <text x="903" y="655" text-anchor="middle" font-size="22" fill="#f59e0b">→</text>

  <!-- Label -->
  <text x="905" y="740" text-anchor="middle" font-size="12" fill="#92400e" font-weight="bold">Diagonal stretch and squeeze</text>
  <text x="905" y="758" text-anchor="middle" font-size="11" fill="#475569">Same as + mode, rotated 45°</text>
  <text x="905" y="778" text-anchor="middle" font-size="11" fill="#475569">Two independent polarizations = tensor</text>

  <!-- Prediction box -->
  <rect x="765" y="796" width="280" height="30" rx="6" fill="#fef3c7" stroke="#fcd34d" stroke-width="1"/>
  <text x="905" y="816" text-anchor="middle" font-size="12" font-weight="bold" fill="#92400e">Einstein's GR predicts this</text>
  <rect x="765" y="830" width="280" height="28" rx="6" fill="#dcfce7" stroke="#86efac" stroke-width="1"/>
  <text x="905" y="849" text-anchor="middle" font-size="11" font-weight="bold" fill="#16a34a">CONFIRMED by LIGO (2015+)</text>

  <!-- === COMPARISON ARROWS AT TOP === -->
  <!-- VS divider -->
  <circle cx="545" cy="255" r="22" fill="#f1f5f9" stroke="#94a3b8" stroke-width="1.5"/>
  <text x="545" y="261" text-anchor="middle" font-size="14" font-weight="bold" fill="#475569">vs</text>

  <!-- Key insight box at very bottom -->
  <!-- (removed to stay within viewBox) -->

</svg>